<svg width="40" height="40" viewBox="0 0 40 40" fill="none" xmlns="http://www.w3.org/2000/svg">
<path fill-rule="evenodd" clip-rule="evenodd" d="M37.6942 28.4862L32.7438 23.5359C31.406 22.1963 29.2334 22.1963 27.8955 23.5359L23.7901 27.6413C18.6392 25.4875 14.5116 21.3599 12.3578 16.209L16.4632 12.1036C17.8011 10.764 17.8011 8.59314 16.4632 7.25527L11.5129 2.30495C10.1733 0.965368 8.00243 0.965368 6.66286 2.30495L4.31009 4.65771C1.86383 7.10227 0.83365 10.6093 1.49664 14.0025C3.9055 26.3443 13.6531 36.0936 25.9966 38.5042C29.3898 39.1655 32.8968 38.1336 35.3414 35.689L37.6942 33.3362C39.0337 31.9967 39.0337 29.8258 37.6942 28.4862Z" stroke="#EF533F" stroke-width="2" stroke-linecap="round" stroke-linejoin="round"/>
<path d="M23.3984 1.29999C31.849 1.29999 38.6982 8.14918 38.6982 16.5997" stroke="#EF533F" stroke-width="2" stroke-linecap="round" stroke-linejoin="round"/>
<path d="M23.3984 8.09991C28.0921 8.09991 31.8983 11.9062 31.8983 16.5998" stroke="#EF533F" stroke-width="2" stroke-linecap="round" stroke-linejoin="round"/>
</svg>
